<svg width="553" height="116" viewBox="0 0 553 116" fill="none" xmlns="http://www.w3.org/2000/svg">
<path d="M0.15625 114V0.25H40C53.8021 0.25 64.2708 2.90625 71.4062 8.21875C78.5417 13.4792 82.1094 21.2135 82.1094 31.4219C82.1094 36.9948 80.6771 41.9167 77.8125 46.1875C74.9479 50.4062 70.9635 53.5052 65.8594 55.4844C71.6927 56.9427 76.276 59.8854 79.6094 64.3125C82.9948 68.7396 84.6875 74.1562 84.6875 80.5625C84.6875 91.5 81.1979 99.7812 74.2188 105.406C67.2396 111.031 57.2917 113.896 44.375 114H0.15625ZM23.5938 64.4688V95.1719H43.6719C49.1927 95.1719 53.4896 93.8698 56.5625 91.2656C59.6875 88.6094 61.25 84.9635 61.25 80.3281C61.25 69.9115 55.8594 64.625 45.0781 64.4688H23.5938ZM23.5938 47.9062H40.9375C52.7604 47.6979 58.6719 42.9844 58.6719 33.7656C58.6719 28.6094 57.1615 24.9115 54.1406 22.6719C51.1719 20.3802 46.4583 19.2344 40 19.2344H23.5938V47.9062ZM97.3438 70.9531C97.3438 62.5677 98.9583 55.0938 102.188 48.5312C105.417 41.9688 110.052 36.8906 116.094 33.2969C122.188 29.7031 129.245 27.9062 137.266 27.9062C148.672 27.9062 157.969 31.3958 165.156 38.375C172.396 45.3542 176.432 54.8333 177.266 66.8125L177.422 72.5938C177.422 85.5625 173.802 95.9792 166.562 103.844C159.323 111.656 149.609 115.562 137.422 115.562C125.234 115.562 115.495 111.656 108.203 103.844C100.964 96.0312 97.3438 85.4062 97.3438 71.9688V70.9531ZM119.922 72.5938C119.922 80.6146 121.432 86.7604 124.453 91.0312C127.474 95.25 131.797 97.3594 137.422 97.3594C142.891 97.3594 147.161 95.276 150.234 91.1094C153.307 86.8906 154.844 80.1719 154.844 70.9531C154.844 63.0885 153.307 56.9948 150.234 52.6719C147.161 48.349 142.839 46.1875 137.266 46.1875C131.745 46.1875 127.474 48.349 124.453 52.6719C121.432 56.9427 119.922 63.5833 119.922 72.5938ZM187.812 70.9531C187.812 62.5677 189.427 55.0938 192.656 48.5312C195.885 41.9688 200.521 36.8906 206.562 33.2969C212.656 29.7031 219.714 27.9062 227.734 27.9062C239.141 27.9062 248.438 31.3958 255.625 38.375C262.865 45.3542 266.901 54.8333 267.734 66.8125L267.891 72.5938C267.891 85.5625 264.271 95.9792 257.031 103.844C249.792 111.656 240.078 115.562 227.891 115.562C215.703 115.562 205.964 111.656 198.672 103.844C191.432 96.0312 187.812 85.4062 187.812 71.9688V70.9531ZM210.391 72.5938C210.391 80.6146 211.901 86.7604 214.922 91.0312C217.943 95.25 222.266 97.3594 227.891 97.3594C233.359 97.3594 237.63 95.276 240.703 91.1094C243.776 86.8906 245.312 80.1719 245.312 70.9531C245.312 63.0885 243.776 56.9948 240.703 52.6719C237.63 48.349 233.307 46.1875 227.734 46.1875C222.214 46.1875 217.943 48.349 214.922 52.6719C211.901 56.9427 210.391 63.5833 210.391 72.5938ZM327.578 90.6406C327.578 87.8802 326.198 85.7188 323.438 84.1562C320.729 82.5417 316.354 81.1094 310.312 79.8594C290.208 75.6406 280.156 67.099 280.156 54.2344C280.156 46.7344 283.255 40.4844 289.453 35.4844C295.703 30.4323 303.854 27.9062 313.906 27.9062C324.635 27.9062 333.203 30.4323 339.609 35.4844C346.068 40.5365 349.297 47.099 349.297 55.1719H326.719C326.719 51.9427 325.677 49.2865 323.594 47.2031C321.51 45.0677 318.255 44 313.828 44C310.026 44 307.083 44.8594 305 46.5781C302.917 48.2969 301.875 50.4844 301.875 53.1406C301.875 55.6406 303.047 57.6719 305.391 59.2344C307.786 60.7448 311.797 62.0729 317.422 63.2188C323.047 64.3125 327.786 65.5625 331.641 66.9688C343.568 71.3438 349.531 78.9219 349.531 89.7031C349.531 97.4115 346.224 103.661 339.609 108.453C332.995 113.193 324.453 115.562 313.984 115.562C306.901 115.562 300.599 114.312 295.078 111.812C289.609 109.26 285.312 105.797 282.188 101.422C279.062 96.9948 277.5 92.2292 277.5 87.125H298.906C299.115 91.1354 300.599 94.2083 303.359 96.3438C306.12 98.4792 309.818 99.5469 314.453 99.5469C318.776 99.5469 322.031 98.7396 324.219 97.125C326.458 95.4583 327.578 93.2969 327.578 90.6406ZM391.172 8.6875V29.4688H405.625V46.0312H391.172V88.2188C391.172 91.3438 391.771 93.5833 392.969 94.9375C394.167 96.2917 396.458 96.9688 399.844 96.9688C402.344 96.9688 404.557 96.7865 406.484 96.4219V113.531C402.057 114.885 397.5 115.562 392.812 115.562C376.979 115.562 368.906 107.568 368.594 91.5781V46.0312H356.25V29.4688H368.594V8.6875H391.172ZM457.109 115.562C444.714 115.562 434.609 111.76 426.797 104.156C419.036 96.5521 415.156 86.4219 415.156 73.7656V71.5781C415.156 63.0885 416.797 55.5104 420.078 48.8438C423.359 42.125 427.995 36.9688 433.984 33.375C440.026 29.7292 446.901 27.9062 454.609 27.9062C466.172 27.9062 475.26 31.5521 481.875 38.8438C488.542 46.1354 491.875 56.474 491.875 69.8594V79.0781H438.047C438.776 84.599 440.964 89.026 444.609 92.3594C448.307 95.6927 452.969 97.3594 458.594 97.3594C467.292 97.3594 474.089 94.2083 478.984 87.9062L490.078 100.328C486.693 105.12 482.109 108.87 476.328 111.578C470.547 114.234 464.141 115.562 457.109 115.562ZM454.531 46.1875C450.052 46.1875 446.406 47.6979 443.594 50.7188C440.833 53.7396 439.062 58.0625 438.281 63.6875H469.688V61.8906C469.583 56.8906 468.229 53.0365 465.625 50.3281C463.021 47.5677 459.323 46.1875 454.531 46.1875ZM552.266 50.6406C549.193 50.224 546.484 50.0156 544.141 50.0156C535.599 50.0156 530 52.9062 527.344 58.6875V114H504.766V29.4688H526.094L526.719 39.5469C531.25 31.7865 537.526 27.9062 545.547 27.9062C548.047 27.9062 550.391 28.2448 552.578 28.9219L552.266 50.6406Z" fill="#322153"/>
</svg>
