<svg width="64" height="72" viewBox="0 0 64 72" fill="none" xmlns="http://www.w3.org/2000/svg">
<path d="M64 18.271V43.694C64 53.7844 55.5565 61.9651 45.1421 61.9651H43.2347L33.4941 71.3963C33.1127 71.7659 32.5849 72 32 72C31.4596 72 30.97 71.809 30.5949 71.4887L30.4296 71.3285L30.4232 71.3224L20.7653 61.9651H18.8516C8.44347 61.9651 0 53.7844 0 43.694V18.271C0 8.1807 8.44347 0 18.8579 0H45.1421C55.5565 0 64 8.1807 64 18.271Z" fill="#FFD666"/>
<path d="M14.2697 35.219C12.4132 35.219 11.355 37.2687 12.4322 38.7487C16.6205 44.5139 23.5462 48.2728 31.3717 48.2728C39.1972 48.2728 46.1166 44.5077 50.3049 38.7487C51.3821 37.2687 50.324 35.219 48.4674 35.219H14.2697Z" fill="white"/>
<path d="M25.1432 26.4937H13.9405V21.0196C13.9405 17.9976 16.4497 15.5454 19.5419 15.5454C22.634 15.5454 25.1432 17.9976 25.1432 21.0196V26.4937Z" fill="white"/>
<path d="M48.803 26.4937H37.6002V21.0196C37.6002 17.9976 40.1094 15.5454 43.2016 15.5454C46.2938 15.5454 48.803 17.9976 48.803 21.0196V26.4937Z" fill="white"/>
</svg>
